HIERARCHY
ROOT hips
{
  OFFSET 0 10.680822821525009 1.3929502295107734
  CHANNELS 6 Xposition Yposition Zposition Yrotation Xrotation Zrotation
  JOINT spine
  {
    OFFSET -7.042017322922631e-31 0.6058489940359625 0
    CHANNELS 3 Yrotation Xrotation Zrotation
    JOINT chest
    {
      OFFSET 0 1.2699794144455032 0
      CHANNELS 3 Yrotation Xrotation Zrotation
      JOINT upperChest
      {
        OFFSET 0 1.217799211677689 0
        CHANNELS 3 Yrotation Xrotation Zrotation
        JOINT neck
        {
          OFFSET 0 1.5248826104153006 0
          CHANNELS 3 Yrotation Xrotation Zrotation
          JOINT head
          {
            OFFSET 0 0.8197772727844447 0
            CHANNELS 3 Yrotation Xrotation Zrotation
            JOINT leftEye
            {
              OFFSET 0.2793952361220866 0.6769952096623495 0.1830357412467788
              CHANNELS 3 Yrotation Xrotation Zrotation
              End Site
              {
                OFFSET 0.2793952361220866 0.6769952096623495 0.1830357412467788
              }
            }
            JOINT rightEye
            {
              OFFSET -0.27939522230689573 0.676995205357064 0.18303631459760622
              CHANNELS 3 Yrotation Xrotation Zrotation
              End Site
              {
                OFFSET -0.27939522230689573 0.676995205357064 0.18303631459760622
              }
            }
          }
        }
        JOINT leftShoulder
        {
          OFFSET 0.41486978509200423 1.1670505408695453 0
          CHANNELS 3 Yrotation Xrotation Zrotation
          JOINT leftUpperArm
          {
            OFFSET 0.9737926108153417 0 0
            CHANNELS 3 Yrotation Xrotation Zrotation
            JOINT leftLowerArm
            {
              OFFSET 2.5269332222665284 0 0
              CHANNELS 3 Yrotation Xrotation Zrotation
              JOINT leftHand
              {
                OFFSET 2.4263782738425914 0 0
                CHANNELS 3 Yrotation Xrotation Zrotation
                JOINT leftIndexProximal
                {
                  OFFSET 0.724320348022514 0.08170607082582437 0.20360061616140124
                  CHANNELS 3 Yrotation Xrotation Zrotation
                  JOINT leftIndexIntermediate
                  {
                    OFFSET 0.36548960630744587 -0.010566596513783999 -0.01414783573280308
                    CHANNELS 3 Yrotation Xrotation Zrotation
                    JOINT leftIndexDistal
                    {
                      OFFSET 0.22502819650693362 -0.007863819831430696 -0.007567681939621526
                      CHANNELS 3 Yrotation Xrotation Zrotation
                      End Site
                      {
                        OFFSET 0.22502819650693362 -0.007863819831430696 -0.007567681939621526
                      }
                    }
                  }
                }
                JOINT leftLittleProximal
                {
                  OFFSET 0.6720322998298205 0.08170601055037707 -0.3230036039466837
                  CHANNELS 3 Yrotation Xrotation Zrotation
                  JOINT leftLittleIntermediate
                  {
                    OFFSET 0.34583592281688713 5.476543019078406e-8 1.3869203337180114e-7
                    CHANNELS 3 Yrotation Xrotation Zrotation
                    JOINT leftLittleDistal
                    {
                      OFFSET 0.19925728062053938 0.003098047439490381 0.0038303983709246925
                      CHANNELS 3 Yrotation Xrotation Zrotation
                      End Site
                      {
                        OFFSET 0.19925728062053938 0.003098047439490381 0.0038303983709246925
                      }
                    }
                  }
                }
                JOINT leftMiddleProximal
                {
                  OFFSET 0.7300436596551069 0.0817073395107144 0.022661722987926763
                  CHANNELS 3 Yrotation Xrotation Zrotation
                  JOINT leftMiddleIntermediate
                  {
                    OFFSET 0.40758254347686607 -0.0000012383587111308714 2.408460318820138e-7
                    CHANNELS 3 Yrotation Xrotation Zrotation
                    JOINT leftMiddleDistal
                    {
                      OFFSET 0.2514490105498507 0.0000013869132886590307 9.738618134136345e-8
                      CHANNELS 3 Yrotation Xrotation Zrotation
                      End Site
                      {
                        OFFSET 0.2514490105498507 0.0000013869132886590307 9.738618134136345e-8
                      }
                    }
                  }
                }
                JOINT leftRingProximal
                {
                  OFFSET 0.7217261161191838 0.08170601902187746 -0.15043395722184966
                  CHANNELS 3 Yrotation Xrotation Zrotation
                  JOINT leftRingIntermediate
                  {
                    OFFSET 0.37808807487521556 0.0000013754022405443322 2.2046919317952884e-7
                    CHANNELS 3 Yrotation Xrotation Zrotation
                    JOINT leftRingDistal
                    {
                      OFFSET 0.21812105442344254 -0.002713483731960231 -0.004991354517454624
                      CHANNELS 3 Yrotation Xrotation Zrotation
                      End Site
                      {
                        OFFSET 0.21812105442344254 -0.002713483731960231 -0.004991354517454624
                      }
                    }
                  }
                }
                JOINT leftThumbProximal
                {
                  OFFSET 0.10793587079521427 -0.1652791240518252 -0.07775251827190094
                  CHANNELS 3 Yrotation Xrotation Zrotation
                  JOINT leftThumbIntermediate
                  {
                    OFFSET 0.40355819082296684 -0.017484006740276614 0.3177776014416309
                    CHANNELS 3 Yrotation Xrotation Zrotation
                    JOINT leftThumbDistal
                    {
                      OFFSET 0.2318764658022603 -0.018510186824293617 0.21396001800186287
                      CHANNELS 3 Yrotation Xrotation Zrotation
                      End Site
                      {
                        OFFSET 0.2318764658022603 -0.018510186824293617 0.21396001800186287
                      }
                    }
                  }
                }
              }
            }
          }
        }
        JOINT rightShoulder
        {
          OFFSET -0.4148697850920044 1.1670505408695453 0
          CHANNELS 3 Yrotation Xrotation Zrotation
          JOINT rightUpperArm
          {
            OFFSET -0.9737926108153414 0 0
            CHANNELS 3 Yrotation Xrotation Zrotation
            JOINT rightLowerArm
            {
              OFFSET -2.5269332222665293 0 0
              CHANNELS 3 Yrotation Xrotation Zrotation
              JOINT rightHand
              {
                OFFSET -2.42637827384259 0 0
                CHANNELS 3 Yrotation Xrotation Zrotation
                JOINT rightIndexProximal
                {
                  OFFSET -0.724320348022514 0.08170607082582437 0.20360061616140124
                  CHANNELS 3 Yrotation Xrotation Zrotation
                  JOINT rightIndexIntermediate
                  {
                    OFFSET -0.36548960630744587 -0.010566596513783999 -0.01414783573280308
                    CHANNELS 3 Yrotation Xrotation Zrotation
                    JOINT rightIndexDistal
                    {
                      OFFSET -0.22502819650693362 -0.007863819831430696 -0.007567681939621526
                      CHANNELS 3 Yrotation Xrotation Zrotation
                      End Site
                      {
                        OFFSET -0.22502819650693362 -0.007863819831430696 -0.007567681939621526
                      }
                    }
                  }
                }
                JOINT rightLittleProximal
                {
                  OFFSET -0.6720322998298205 0.08170601055037707 -0.3230036039466837
                  CHANNELS 3 Yrotation Xrotation Zrotation
                  JOINT rightLittleIntermediate
                  {
                    OFFSET -0.34583592281688713 5.476543019078406e-8 1.3869203337180114e-7
                    CHANNELS 3 Yrotation Xrotation Zrotation
                    JOINT rightLittleDistal
                    {
                      OFFSET -0.19925728062053938 0.003098047439490381 0.0038303983709246925
                      CHANNELS 3 Yrotation Xrotation Zrotation
                      End Site
                      {
                        OFFSET -0.19925728062053938 0.003098047439490381 0.0038303983709246925
                      }
                    }
                  }
                }
                JOINT rightMiddleProximal
                {
                  OFFSET -0.7300436596551069 0.0817073395107144 0.022661722987926763
                  CHANNELS 3 Yrotation Xrotation Zrotation
                  JOINT rightMiddleIntermediate
                  {
                    OFFSET -0.40758254347686607 -0.0000012383587111308714 2.408460318820138e-7
                    CHANNELS 3 Yrotation Xrotation Zrotation
                    JOINT rightMiddleDistal
                    {
                      OFFSET -0.2514490105498507 0.0000013869132886590307 9.738618134136345e-8
                      CHANNELS 3 Yrotation Xrotation Zrotation
                      End Site
                      {
                        OFFSET -0.2514490105498507 0.0000013869132886590307 9.738618134136345e-8
                      }
                    }
                  }
                }
                JOINT rightRingProximal
                {
                  OFFSET -0.7217261161191838 0.08170601902187746 -0.15043395722184966
                  CHANNELS 3 Yrotation Xrotation Zrotation
                  JOINT rightRingIntermediate
                  {
                    OFFSET -0.37808807487521556 0.0000013754022405443322 2.2046919317952884e-7
                    CHANNELS 3 Yrotation Xrotation Zrotation
                    JOINT rightRingDistal
                    {
                      OFFSET -0.21812105442344254 -0.002713483731960231 -0.004991354517454624
                      CHANNELS 3 Yrotation Xrotation Zrotation
                      End Site
                      {
                        OFFSET -0.21812105442344254 -0.002713483731960231 -0.004991354517454624
                      }
                    }
                  }
                }
                JOINT rightThumbProximal
                {
                  OFFSET -0.10793587079521427 -0.1652791240518252 -0.07775251827190094
                  CHANNELS 3 Yrotation Xrotation Zrotation
                  JOINT rightThumbIntermediate
                  {
                    OFFSET -0.40355819082296684 -0.017484006740276614 0.3177776014416309
                    CHANNELS 3 Yrotation Xrotation Zrotation
                    JOINT rightThumbDistal
                    {
                      OFFSET -0.2318764658022603 -0.018510186824293617 0.21396001800186287
                      CHANNELS 3 Yrotation Xrotation Zrotation
                      End Site
                      {
                        OFFSET -0.2318764658022603 -0.018510186824293617 0.21396001800186287
                      }
                    }
                  }
                }
              }
            }
          }
        }
      }
    }
  }
  JOINT leftUpperLeg
  {
    OFFSET 0.8486251390888677 -0.4421577294694363 0
    CHANNELS 3 Yrotation Xrotation Zrotation
    JOINT leftLowerLeg
    {
      OFFSET 0 -4.10147812638609 0
      CHANNELS 3 Yrotation Xrotation Zrotation
      JOINT leftFoot
      {
        OFFSET -0.0002543926476658853 -4.77292286812444 0.007402811231737388
        CHANNELS 3 Yrotation Xrotation Zrotation
        JOINT leftToes
        {
          OFFSET 0 -0.7027875951174846 1.2062924140498823
          CHANNELS 3 Yrotation Xrotation Zrotation
          End Site
          {
            OFFSET 0 -0.7027875951174846 1.2062924140498823
          }
        }
      }
    }
  }
  JOINT rightUpperLeg
  {
    OFFSET -0.8486251390888677 -0.4421577294694363 0
    CHANNELS 3 Yrotation Xrotation Zrotation
    JOINT rightLowerLeg
    {
      OFFSET 0 -4.10147812638609 0
      CHANNELS 3 Yrotation Xrotation Zrotation
      JOINT rightFoot
      {
        OFFSET 0.0002543926476658853 -4.77292286812444 0.007402811231737388
        CHANNELS 3 Yrotation Xrotation Zrotation
        JOINT rightToes
        {
          OFFSET 0 -0.7027875951174846 1.2062924140498823
          CHANNELS 3 Yrotation Xrotation Zrotation
          End Site
          {
            OFFSET 0 -0.7027875951174846 1.2062924140498823
          }
        }
      }
    }
  }
}
MOTION
Frames: 4
Frame Time: 0.03333333333333333
0.024286264553666115 -0.04799124803868082 0.014041910879313946 4.768911266532689 -0.93605524534678 -1.589847651942479 -0.2667237640767665 1.0682478729791038 -1.5037228595347927 0.15980225926083147 -7.683021332851173 -0.2206568684085075 0 0 0 -0.30105856664290354 -2.686781237797599 -0.41894529209245424 -5.260827189669519 -8.131782771337472 -8.56603180596675 0 0 0 0 0 0 3.0000440681030685 3.9919890244145164 -9.494405672255555 -19.88075750152246 8.783632360588976 -59.24211795805026 -8.715332552718841 -1.3661615196086103 0.21686545180550218 -2.977265564995058 0.21067120298528072 -1.6255028821925372 -2.128853419216783 -2.920882077158367 -19.15996855741752 2.7410098294392773 0.794379011489114 -32.320795061684315 1.6849508155965396 0.28486496514714815 -19.192671607313212 10.545893275155823 -5.606840208058697 -29.621960864533218 2.7714854472672283 0.8138064629648314 -32.7245656178704 2.328301659839081 0.5593034051738215 -27.013850618512517 3.5591592126706026 0.069347040966133 -19.977957339638838 2.5824684895285923 0.698039602584468 -30.24883080806817 2.2145441813360245 0.5030947735911699 -25.596116736305948 6.930008603596333 2.2842991271456596 -27.57745424500955 2.8644306448257613 0.8749354527895082 -33.96705540548834 2.9855727291042324 0.9591124216195764 -35.614138177185886 -3.641059207999585 -3.4848229780792366 22.15658028662467 12.14225746839082 17.648465824068207 -10.599665746995344 -13.186359069133827 -20.333064816585683 20.507417419326945 -4.181424850217583 2.6704232045460836 11.748604290887013 -4.767077897313835 3.609548341022111 60.990074418240965 14.223740120389571 -2.2056174914710627 -0.4597780135555841 17.193726150746134 9.572606514923303 2.0835196041154997 5.166579706232735 -2.948877963532264 11.727210021140065 -2.4930668537642307 0.8937867793499307 39.44041415279691 -1.8113788345431805 0.4431358320790384 27.492717069359237 -17.811609333720362 -7.765580759164198 30.60719921943494 -1.9402357633523142 0.5132935543409284 29.634213808553945 -1.590886082592366 0.3370209260971661 23.919813669739902 0.5350596268496708 -2.513011336246447 24.419162621320343 -2.2392521936123755 0.7016911447160048 34.79425744874831 -1.8419589628951623 0.4592307647962913 27.9968329067483 -3.9099577247547472 0.26678263012938186 31.560318579208843 -2.3164983982166008 0.7567784695630629 36.17859380610602 -1.5828440340936663 0.3334493430372619 23.79142192301467 3.1461900478642066 -2.4093243318579476 -14.114512452663837 -13.610570920786238 16.767643715320098 1.5968364788910527 14.30474404039872 -21.798135594055854 -15.964942003169256 7.581118345913839 -5.696405715054728 3.5650670842852143 2.4409180504297714 16.321753726446808 2.7013504551419225 0.72271949084888 -8.40706217157897 -6.683692939518084 0.000007536806846039593 0.000002015437402554333 9.492601062318669e-7 -11.192203024718255 -1.2063908309725186 -4.453796935776058 -6.788607113297245 10.228159980011213 -2.910695788560085 -0.6209775439810528 -4.18537780765464 8.557944223327702 -0.0000024325995652415846 -0.0000027400282149751082 0.0000010020434721701874
0.013879189267754555 -0.04628226366368082 0.015515622682869434 4.824265473416088 -0.9664151382426989 -1.5728636827900078 -0.24956812974666387 1.0682607885502902 -1.504261537229059 0.1613087395990523 -7.681289706267441 -0.2516632788628247 0 0 0 -0.2915171839698793 -2.6948486888686713 -0.43389485600404243 -5.174426819813619 -8.107177100515434 -8.838310676180107 0 0 0 0 0 0 3.030226570186401 4.001958882990059 -9.539778172243636 -19.869557782984117 8.751310743572002 -59.23839162844116 -8.673826894934082 -1.3597661195084325 0.21536544579448777 -2.9574352742716514 0.1878030309434317 -1.6016483389219514 -2.1362833025971564 -2.9244815731388365 -19.157989149392485 2.743074182944472 0.7956798608700203 -32.34812811231438 1.6867693367319438 0.2855011944772349 -19.2141372529466 10.547892048042927 -5.606808466575233 -29.62322860149765 2.771454957484807 0.81378661072512 -32.72409855120162 2.3289802774966764 0.5596483995351151 -27.02253390298128 3.5593347478685886 0.06927192217051459 -19.984566837891858 2.5824499967907326 0.6980279690551942 -30.248622825261034 2.214906666121693 0.5032519807259757 -25.600731461799064 6.93181448308025 2.2847735620483656 -27.55660272705594 2.863651348791896 0.8744172051594002 -33.95657446797323 2.9854414785992693 0.9590225493529344 -35.61230697143619 -3.641034879580697 -3.4848783623335726 22.15653393118226 12.121032030100201 17.635398094871327 -10.594474257832228 -13.197292708989952 -20.33298104980311 20.516369921058573 -4.1426475332517745 2.661988181389806 11.684330933941935 -4.738823298289016 3.5343463630706053 61.05466568526677 14.20050401092227 -2.2021204092214695 -0.458598782466627 17.22619926489369 9.607731582767789 2.0412365819401606 5.163198045640225 -2.9515869492164835 11.745198231452715 -2.493478433409478 0.8940878245616198 39.4479552633859 -1.8117062134231405 0.44330899322770306 27.498060389644756 -17.810043229205995 -7.763590292521278 30.635405860563903 -1.9415579105248728 0.5140550976775227 29.656464444955066 -1.5910818210906843 0.3370907233004642 23.922938812049637 0.532573302767575 -2.5125549823190156 24.428681892746955 -2.24099397588557 0.7029004992117609 34.82501222610598 -1.8427093044821081 0.4596436309885647 28.009373240648753 -3.9088673741747977 0.2652112161186584 31.584941713896708 -2.3168295461836714 0.7569975349783512 36.18464494879257 -1.5835550008278492 0.3337717014139685 23.802793662159814 3.1396297343189667 -2.4069538703407374 -14.114120189226677 -13.602409902139348 16.764141205601003 1.5925850233864018 14.294373257944253 -21.796916313942845 -15.962600395999686 7.616052608255426 -5.630692705881072 3.613094361797773 2.3365212181039334 16.22055099265473 2.680736984346221 0.7231968568446703 -8.299274669592261 -6.745478642115473 -0.000004185376279092424 -0.009849025276193914 6.723633565518987e-7 -11.192010528463328 -1.1404220187447063 -4.432479160144632 -6.844702583421453 10.197789872100824 -2.876930387557725 -0.6138751544632942 -4.154097693533722 8.5055212643653 0.000005890977988130292 -0.0071361394748548825 0.0000013379494345219098
-0.007597210351377726 -0.04256293382969645 0.01908562146127224 4.951842802748137 -1.0233712828915487 -1.530991791215281 -0.22962790169324385 1.0655110539942187 -1.5101443301837523 0.16098532806477048 -7.6795796242550844 -0.31550134929982665 0 0 0 -0.2711183530286518 -2.7115987301350626 -0.4630244410402029 -4.996816166581173 -8.055230792276813 -9.332226074945412 0 0 0 0 0 0 3.079496680924368 4.0193296126141576 -9.624722854643677 -19.855927426791514 8.736543856801475 -59.24463160653905 -8.625135600297757 -1.352229669999113 0.21353122938424435 -2.920287953026652 0.12803064183810162 -1.576508558010054 -2.140409340410397 -2.930426686893394 -19.200111269017206 2.74888433014442 0.7993739103269119 -32.42500162984982 1.692605191930371 0.28754155224088135 -19.283226781265952 10.54872132827735 -5.610228406878176 -29.621075050333566 2.7721162489530298 0.814206603021567 -32.73293588019162 2.3301774907620976 0.5602688024391401 -27.03740930062023 3.559833233250923 0.06911680205804255 -19.999445430763146 2.5824094807217164 0.6980256210034176 -30.24802420005504 2.2155714873143593 0.50357776130762 -25.60897406021505 6.936507466426101 2.287363624783645 -27.535197898683553 2.8624576737771013 0.8736464246798737 -33.940569831383 2.9852448513301573 0.9588655397336203 -35.609492655913336 -3.640992849968356 -3.485084289145668 22.15644409500947 12.090821412344743 17.61661612543322 -10.585775266080717 -13.211210554936242 -20.33354374493145 20.527649290785366 -4.062843204709611 2.6444963117713463 11.545222219912452 -4.6854189114737625 3.418487583478724 61.19751076913103 14.196561704354455 -2.2015368509746147 -0.45839300653771603 17.282212883507928 9.652464478088145 1.9653560723958796 5.159268748318733 -2.9571532676343915 11.781404652908943 -2.494792508239871 0.8951786533674491 39.47279096631784 -1.8132678005434042 0.4441388327362833 27.523703157172985 -17.8038265425315 -7.762040147756689 30.69750824897273 -1.9444398549343234 0.5156751985823514 29.70486033862923 -1.5918839898162431 0.3374658032340968 23.935757180827338 0.5292347213907527 -2.5135651142602744 24.454832146915702 -2.244319436541643 0.7052069827677772 34.884324725689886 -1.8450826833259786 0.4609044819042696 28.048768436521943 -3.9118270886372493 0.26627871146281873 31.638412261949437 -2.3181634354555074 0.7579859177119982 36.20869490041475 -1.5857998935901214 0.3347602013556188 23.838336450894065 3.117294107908827 -2.39918730506931 -14.115415488439313 -13.598172894384703 16.761082804089792 1.5783984443413412 14.280701720729887 -21.78663836044115 -15.970808897626226 7.684355888999211 -5.49399634135004 3.7057190345065205 2.1145763525341 15.999245203790768 2.6373472826880557 0.7251941490906256 -8.062009243025303 -6.887295730632069 -0.00001833316256338824 -0.007184225107554846 -9.153718813229345e-7 -11.188217117322921 -1.0100242726173794 -4.392752166258017 -6.982825838970959 10.140797340852995 -2.818654994571169 -0.6003696438772569 -4.080502854392634 8.41612558879996 -0.000016674085906453212 -0.008557670941705063 -0.000001060132512205938
-0.03020329587161541 -0.03854128923741129 0.02359904907643795 5.10434123804013 -1.0742835067791958 -1.4735921340162599 -0.22810573181496754 1.05597725086279 -1.5248916280851765 0.15670500997329534 -7.682967057880934 -0.38327473718046934 0 0 0 -0.24893273014195627 -2.7284402470936833 -0.4917246519066793 -4.811913621994384 -7.999914900277995 -9.752989942216944 0 0 0 0 0 0 3.1143481189628788 4.033123498715085 -9.706675010015083 -19.846266801687158 8.789084508236229 -59.25732415278081 -8.620529152805732 -1.3515101654358053 0.2134231340573849 -2.8857941805796536 0.06363226986407589 -1.5816795844541482 -2.132197604002043 -2.9298182180009973 -19.31115914047659 2.7577015540359375 0.8049753211456804 -32.541797707846975 1.7019660902844653 0.2908166429818368 -19.394095114900594 10.5464410879392 -5.615622799736826 -29.614700887826803 2.7735645332059167 0.8151431272973697 -32.75214513406869 2.331005893622193 0.5606763387709489 -27.04795604864492 3.56021668346843 0.0688591956838696 -20.015361708790568 2.5823312800926965 0.6979760450923178 -30.247075249455644 2.216114600034714 0.5038349171951114 -25.615724252393097 6.942130763537696 2.2917529640491727 -27.539258108025262 2.8618162346579665 0.8731751935984364 -33.931771316665206 2.985179226081584 0.958831810951621 -35.6087021229785 -3.640935253198955 -3.4854709099073693 22.156242535150266 12.076358253534258 17.60741666594755 -10.580040113779651 -13.214222036745273 -20.334064558428533 20.529332111465312 -3.9857507478095013 2.6271179328219083 11.395420488666685 -4.637457471127851 3.3540402236624582 61.35515199593758 14.252781318923336 -2.2099721948667415 -0.46127068343070693 17.31818440005049 9.660038032003506 1.9047311298422327 5.158636854958831 -2.9619416403846848 11.820173578573739 -2.496976385235136 0.8969454871908433 39.51379812857375 -1.8161161845837857 0.4456262313067957 27.570466122423976 -17.794953692220858 -7.762202141494597 30.766738355273837 -1.9477727367488236 0.5175914113476144 29.76096970287809 -1.593644060128861 0.33823688096356247 23.963855021275155 0.5273245968461013 -2.517047810775538 24.493174730204217 -2.2477679470543666 0.7076243597748304 34.94565003122282 -1.8486936929910698 0.4628292170428217 28.108340071570336 -3.920494526214959 0.27214244023346945 31.697363896638166 -2.320590288229408 0.7597680063448219 36.25261046973767 -1.5891363610292188 0.33623189222782296 23.891825054547173 3.0795542385170345 -2.3868023362982798 -14.120579458238801 -13.615855163596406 16.765553615201124 1.5564394806949373 14.270620440604198 -21.76433797415577 -15.993007337705874 7.754125318329371 -5.3635951212085615 3.7945274192898735 1.8718847628946769 15.774266396125105 2.5861589400598404 0.7291120276983688 -7.788400280979363 -7.069854164686134 0.000003482265257661069 0.01690880221399247 0.000004588431097815256 -11.177170439990894 -0.9018445103340581 -4.361011524794773 -7.165476750992058 10.12572709225249 -2.7815287907278967 -0.5883172273559791 -3.9932047604033345 8.364392466937593 -0.000007269246983571409 0.006185570485670152 0.0000030573606539868277
